<svg id="Ebene_1" data-name="Ebene 1" xmlns="http://www.w3.org/2000/svg" viewBox="0 0 780.78 136.44"><title>RCM-DX_Logo</title><path d="M44.78,16.27H99.46q16.23,0,23.62,4.69a18.54,18.54,0,0,1,8.22,10.23c1.39,4.26,1.35,9.07-.08,14.43a35.57,35.57,0,0,1-9,15.84,37.22,37.22,0,0,1-15.84,9.67c4.69,1.13,7.92,3.7,9.68,7.68a17,17,0,0,1,1.53,7.88c-.12,2.76-1,9-2.65,18.83q-1.82,10.82-.29,13.43l.77,1.22H89.7a14,14,0,0,1-.39-5.62q.34-3.4,2.73-15.78,2-11-1.75-15.24T74.7,79.3H52.52L41.58,120.17H16.94ZM64.63,34.1,57,62.67H80.54q11.35,0,16.79-3a17.66,17.66,0,0,0,8.92-11.37c1.33-4.94.61-8.52-2.13-10.8S96.41,34.1,89.2,34.1Z"/><path d="M241.55,79.56a59,59,0,0,1-19.13,26.3q-17.76,14.33-42.94,14.31-26.8,0-37-16.61-8.77-14.18-2.81-35.4,6.26-22.24,25.56-37.11t44.39-14.78q23.4,0,33.89,13.56,7.51,9.57,5.08,22H224.22q.36-8.4-4.92-13T204,34.31a36.37,36.37,0,0,0-27.36,11.87,52.3,52.3,0,0,0-12.15,22.11q-3.76,13.42,0,22.38,4.76,11.46,20.34,11.46a32.81,32.81,0,0,0,19.34-5.76q8.24-5.76,12.87-16.81Z"/><path d="M397.48,16.27l-27.84,103.9h-23.4l22-79-49.66,79H299.19l-8.4-76.76-19.72,76.76H247.66L275.5,16.27h35.07L317.13,91l45.58-74.69Z"/><path d="M442.49,72.2l-4.95,18.47h-43l5-18.47Z"/><path d="M474.34,16.27H520q12.75,0,21.1,2.7a31.39,31.39,0,0,1,13.74,8.53q13.1,14.19,6.35,39.43Q554,93.68,534.13,108.22a57.5,57.5,0,0,1-18.31,9.21q-9.53,2.73-23.13,2.74h-46.2Zm19.51,19.18L476.3,101h19a53.73,53.73,0,0,0,14.34-1.6,30.44,30.44,0,0,0,10.49-5.44q11.36-9,16-26.22,4.26-15.93-1.85-24.09t-22.33-8.18Z"/><path d="M679.9,16.27,630.32,65.8l25.07,54.37H625.73L610.67,84.06l-34.86,36.11H547.62L602.06,65.8l-23.5-49.53h28.89L620.92,49.6l31.64-33.33Z"/><polyline points="697.36 120.17 672.29 65.8 721.88 16.27 696.26 16.27 646.69 65.8 671.75 120.16" style="fill:#e30613"/><polyline points="739.3 120.17 714.24 65.8 763.82 16.27 738.21 16.27 688.63 65.8 713.69 120.16" style="fill:#e30613"/></svg>